<mxfile host="app.diagrams.net" modified="2023-09-13T13:31:01.214Z" agent="Mozilla/5.0 (Windows NT 10.0; Win64; x64) AppleWebKit/537.36 (KHTML, like Gecko) Chrome/116.0.0.0 Safari/537.36" etag="p6npIeChvkt0VQnBkSAL" version="21.7.2" type="google">
  <diagram id="C5RBs43oDa-KdzZeNtuy" name="Page-1">
    <mxGraphModel grid="1" page="1" gridSize="10" guides="1" tooltips="1" connect="1" arrows="1" fold="1" pageScale="1" pageWidth="827" pageHeight="1169" math="0" shadow="0">
      <root>
        <mxCell id="WIyWlLk6GJQsqaUBKTNV-0" />
        <mxCell id="WIyWlLk6GJQsqaUBKTNV-1" parent="WIyWlLk6GJQsqaUBKTNV-0" />
        <mxCell id="WIyWlLk6GJQsqaUBKTNV-2" value="" style="rounded=0;html=1;jettySize=auto;orthogonalLoop=1;fontSize=11;endArrow=block;endFill=0;endSize=8;strokeWidth=1;shadow=0;labelBackgroundColor=none;edgeStyle=orthogonalEdgeStyle;" edge="1" parent="WIyWlLk6GJQsqaUBKTNV-1" source="WIyWlLk6GJQsqaUBKTNV-3">
          <mxGeometry relative="1" as="geometry">
            <mxPoint x="490" y="65" as="targetPoint" />
            <Array as="points">
              <mxPoint x="455" y="65" />
            </Array>
          </mxGeometry>
        </mxCell>
        <mxCell id="vMmNoZHCzbard37rDWfw-25" value="" style="edgeStyle=orthogonalEdgeStyle;rounded=0;orthogonalLoop=1;jettySize=auto;html=1;" edge="1" parent="WIyWlLk6GJQsqaUBKTNV-1" source="WIyWlLk6GJQsqaUBKTNV-3" target="vMmNoZHCzbard37rDWfw-24">
          <mxGeometry relative="1" as="geometry" />
        </mxCell>
        <mxCell id="WIyWlLk6GJQsqaUBKTNV-3" value="首頁" style="rounded=1;whiteSpace=wrap;html=1;fontSize=12;glass=0;strokeWidth=1;shadow=0;" vertex="1" parent="WIyWlLk6GJQsqaUBKTNV-1">
          <mxGeometry x="40" y="10" width="120" height="110" as="geometry" />
        </mxCell>
        <mxCell id="vMmNoZHCzbard37rDWfw-0" value="揪團頁面" style="rounded=1;whiteSpace=wrap;html=1;fontSize=12;glass=0;strokeWidth=1;shadow=0;" vertex="1" parent="WIyWlLk6GJQsqaUBKTNV-1">
          <mxGeometry x="480" y="10" width="120" height="110" as="geometry" />
        </mxCell>
        <mxCell id="vMmNoZHCzbard37rDWfw-2" value="&lt;span style=&quot;font-size: 20px;&quot;&gt;&lt;b&gt;主揪揪團&lt;/b&gt;&lt;/span&gt;" style="text;html=1;align=center;verticalAlign=middle;resizable=0;points=[];autosize=1;strokeColor=none;fillColor=none;" vertex="1" parent="WIyWlLk6GJQsqaUBKTNV-1">
          <mxGeometry x="180" y="63" width="100" height="40" as="geometry" />
        </mxCell>
        <mxCell id="vMmNoZHCzbard37rDWfw-3" value="" style="endArrow=classic;html=1;rounded=0;exitX=0.5;exitY=1;exitDx=0;exitDy=0;" edge="1" parent="WIyWlLk6GJQsqaUBKTNV-1" source="vMmNoZHCzbard37rDWfw-0">
          <mxGeometry width="50" height="50" relative="1" as="geometry">
            <mxPoint x="310" y="410" as="sourcePoint" />
            <mxPoint x="540" y="220" as="targetPoint" />
            <Array as="points" />
          </mxGeometry>
        </mxCell>
        <mxCell id="vMmNoZHCzbard37rDWfw-4" value="報名頁面" style="rounded=1;whiteSpace=wrap;html=1;fontSize=12;glass=0;strokeWidth=1;shadow=0;" vertex="1" parent="WIyWlLk6GJQsqaUBKTNV-1">
          <mxGeometry x="480" y="210" width="120" height="110" as="geometry" />
        </mxCell>
        <mxCell id="vMmNoZHCzbard37rDWfw-5" value="&lt;h3&gt;&lt;font style=&quot;font-size: 20px;&quot;&gt;&lt;b&gt;開團成功&lt;/b&gt;&lt;/font&gt;&lt;/h3&gt;" style="text;html=1;align=center;verticalAlign=middle;resizable=0;points=[];autosize=1;strokeColor=none;fillColor=none;" vertex="1" parent="WIyWlLk6GJQsqaUBKTNV-1">
          <mxGeometry x="430" y="148" width="100" height="70" as="geometry" />
        </mxCell>
        <mxCell id="vMmNoZHCzbard37rDWfw-7" value="選擇時間頁面" style="rounded=1;whiteSpace=wrap;html=1;fontSize=12;glass=0;strokeWidth=1;shadow=0;" vertex="1" parent="WIyWlLk6GJQsqaUBKTNV-1">
          <mxGeometry x="-520" y="13" width="120" height="110" as="geometry" />
        </mxCell>
        <mxCell id="vMmNoZHCzbard37rDWfw-9" value="&lt;h1&gt;&lt;span style=&quot;color: rgb(0, 0, 0); font-family: Helvetica; font-style: normal; font-variant-ligatures: normal; font-variant-caps: normal; letter-spacing: normal; orphans: 2; text-align: center; text-indent: 0px; text-transform: none; widows: 2; word-spacing: 0px; -webkit-text-stroke-width: 0px; background-color: rgb(251, 251, 251); text-decoration-thickness: initial; text-decoration-style: initial; text-decoration-color: initial; float: none; display: inline !important;&quot;&gt;&lt;font style=&quot;font-size: 20px;&quot;&gt;選擇時間&lt;/font&gt;&lt;/span&gt;&lt;/h1&gt;" style="text;whiteSpace=wrap;html=1;" vertex="1" parent="WIyWlLk6GJQsqaUBKTNV-1">
          <mxGeometry x="-550" y="120" width="140" height="40" as="geometry" />
        </mxCell>
        <mxCell id="vMmNoZHCzbard37rDWfw-10" value="" style="endArrow=classic;html=1;rounded=0;" edge="1" parent="WIyWlLk6GJQsqaUBKTNV-1">
          <mxGeometry width="50" height="50" relative="1" as="geometry">
            <mxPoint x="-460.5" y="120" as="sourcePoint" />
            <mxPoint x="-460.5" y="200" as="targetPoint" />
          </mxGeometry>
        </mxCell>
        <mxCell id="vMmNoZHCzbard37rDWfw-15" value="&lt;b style=&quot;border-color: var(--border-color); font-size: 20px;&quot;&gt;選擇最多人時間開團&lt;/b&gt;" style="rhombus;whiteSpace=wrap;html=1;" vertex="1" parent="WIyWlLk6GJQsqaUBKTNV-1">
          <mxGeometry x="-570" y="195" width="220" height="160" as="geometry" />
        </mxCell>
        <mxCell id="vMmNoZHCzbard37rDWfw-22" value="" style="edgeStyle=orthogonalEdgeStyle;rounded=0;orthogonalLoop=1;jettySize=auto;html=1;" edge="1" parent="WIyWlLk6GJQsqaUBKTNV-1" source="vMmNoZHCzbard37rDWfw-17" target="vMmNoZHCzbard37rDWfw-7">
          <mxGeometry relative="1" as="geometry" />
        </mxCell>
        <mxCell id="vMmNoZHCzbard37rDWfw-17" value="&lt;span style=&quot;font-size: 20px;&quot;&gt;&lt;b&gt;判斷愛心人數&lt;/b&gt;&lt;/span&gt;" style="rhombus;whiteSpace=wrap;html=1;" vertex="1" parent="WIyWlLk6GJQsqaUBKTNV-1">
          <mxGeometry x="-300" y="-16" width="220" height="168" as="geometry" />
        </mxCell>
        <mxCell id="vMmNoZHCzbard37rDWfw-18" value="" style="endArrow=classic;html=1;rounded=0;" edge="1" parent="WIyWlLk6GJQsqaUBKTNV-1" target="vMmNoZHCzbard37rDWfw-17">
          <mxGeometry width="50" height="50" relative="1" as="geometry">
            <mxPoint x="40" y="70" as="sourcePoint" />
            <mxPoint x="90" y="20" as="targetPoint" />
          </mxGeometry>
        </mxCell>
        <mxCell id="vMmNoZHCzbard37rDWfw-19" value="&lt;font style=&quot;font-size: 19px;&quot;&gt;&lt;b&gt;愛心關注&lt;/b&gt;&lt;/font&gt;" style="text;html=1;strokeColor=none;fillColor=none;align=center;verticalAlign=middle;whiteSpace=wrap;rounded=0;" vertex="1" parent="WIyWlLk6GJQsqaUBKTNV-1">
          <mxGeometry x="-60" y="40" width="80" height="30" as="geometry" />
        </mxCell>
        <mxCell id="vMmNoZHCzbard37rDWfw-21" value="" style="endArrow=classic;html=1;rounded=0;entryX=1;entryY=0.5;entryDx=0;entryDy=0;exitX=0;exitY=0.5;exitDx=0;exitDy=0;" edge="1" parent="WIyWlLk6GJQsqaUBKTNV-1" source="vMmNoZHCzbard37rDWfw-17" target="vMmNoZHCzbard37rDWfw-7">
          <mxGeometry width="50" height="50" relative="1" as="geometry">
            <mxPoint x="-300" y="70" as="sourcePoint" />
            <mxPoint x="-250" y="20" as="targetPoint" />
          </mxGeometry>
        </mxCell>
        <mxCell id="vMmNoZHCzbard37rDWfw-23" value="&lt;span style=&quot;font-size: 19px;&quot;&gt;&lt;b&gt;通知使用者&lt;/b&gt;&lt;/span&gt;" style="text;html=1;strokeColor=none;fillColor=none;align=center;verticalAlign=middle;whiteSpace=wrap;rounded=0;" vertex="1" parent="WIyWlLk6GJQsqaUBKTNV-1">
          <mxGeometry x="-390" y="30" width="100" height="40" as="geometry" />
        </mxCell>
        <mxCell id="vMmNoZHCzbard37rDWfw-35" value="" style="edgeStyle=orthogonalEdgeStyle;rounded=0;orthogonalLoop=1;jettySize=auto;html=1;" edge="1" parent="WIyWlLk6GJQsqaUBKTNV-1" source="vMmNoZHCzbard37rDWfw-24" target="vMmNoZHCzbard37rDWfw-34">
          <mxGeometry relative="1" as="geometry" />
        </mxCell>
        <mxCell id="vMmNoZHCzbard37rDWfw-24" value="活動瀑布頁面" style="rounded=1;whiteSpace=wrap;html=1;fontSize=12;glass=0;strokeWidth=1;shadow=0;" vertex="1" parent="WIyWlLk6GJQsqaUBKTNV-1">
          <mxGeometry x="40" y="210" width="120" height="110" as="geometry" />
        </mxCell>
        <mxCell id="vMmNoZHCzbard37rDWfw-26" value="" style="endArrow=classic;html=1;rounded=0;" edge="1" parent="WIyWlLk6GJQsqaUBKTNV-1" target="vMmNoZHCzbard37rDWfw-17">
          <mxGeometry width="50" height="50" relative="1" as="geometry">
            <mxPoint x="40" y="270" as="sourcePoint" />
            <mxPoint x="90" y="220" as="targetPoint" />
          </mxGeometry>
        </mxCell>
        <mxCell id="vMmNoZHCzbard37rDWfw-27" value="&lt;font style=&quot;font-size: 19px;&quot;&gt;&lt;b&gt;使用者愛心關注&lt;/b&gt;&lt;/font&gt;" style="text;html=1;strokeColor=none;fillColor=none;align=center;verticalAlign=middle;whiteSpace=wrap;rounded=0;" vertex="1" parent="WIyWlLk6GJQsqaUBKTNV-1">
          <mxGeometry x="-180" y="188" width="140" height="30" as="geometry" />
        </mxCell>
        <mxCell id="vMmNoZHCzbard37rDWfw-28" value="開團報名頁面" style="rounded=1;whiteSpace=wrap;html=1;fontSize=12;glass=0;strokeWidth=1;shadow=0;" vertex="1" parent="WIyWlLk6GJQsqaUBKTNV-1">
          <mxGeometry x="-520" y="450" width="120" height="110" as="geometry" />
        </mxCell>
        <mxCell id="vMmNoZHCzbard37rDWfw-30" value="" style="endArrow=classic;html=1;rounded=0;entryX=0.5;entryY=0;entryDx=0;entryDy=0;" edge="1" parent="WIyWlLk6GJQsqaUBKTNV-1" target="vMmNoZHCzbard37rDWfw-28">
          <mxGeometry width="50" height="50" relative="1" as="geometry">
            <mxPoint x="-460" y="355" as="sourcePoint" />
            <mxPoint x="-410" y="305" as="targetPoint" />
          </mxGeometry>
        </mxCell>
        <mxCell id="vMmNoZHCzbard37rDWfw-31" value="&lt;span style=&quot;font-size: 19px;&quot;&gt;&lt;b&gt;通知使用者&lt;/b&gt;&lt;/span&gt;" style="text;html=1;strokeColor=none;fillColor=none;align=center;verticalAlign=middle;whiteSpace=wrap;rounded=0;" vertex="1" parent="WIyWlLk6GJQsqaUBKTNV-1">
          <mxGeometry x="-560" y="370" width="100" height="40" as="geometry" />
        </mxCell>
        <mxCell id="vMmNoZHCzbard37rDWfw-32" value="" style="endArrow=classic;html=1;rounded=0;" edge="1" parent="WIyWlLk6GJQsqaUBKTNV-1">
          <mxGeometry width="50" height="50" relative="1" as="geometry">
            <mxPoint x="-400" y="460" as="sourcePoint" />
            <mxPoint x="50" y="310" as="targetPoint" />
          </mxGeometry>
        </mxCell>
        <mxCell id="vMmNoZHCzbard37rDWfw-33" value="&lt;span style=&quot;font-size: 19px;&quot;&gt;&lt;b&gt;PO上頁面&lt;/b&gt;&lt;/span&gt;" style="text;html=1;strokeColor=none;fillColor=none;align=center;verticalAlign=middle;whiteSpace=wrap;rounded=0;" vertex="1" parent="WIyWlLk6GJQsqaUBKTNV-1">
          <mxGeometry x="-300" y="370" width="110" height="30" as="geometry" />
        </mxCell>
        <mxCell id="vMmNoZHCzbard37rDWfw-42" value="" style="edgeStyle=orthogonalEdgeStyle;rounded=0;orthogonalLoop=1;jettySize=auto;html=1;" edge="1" parent="WIyWlLk6GJQsqaUBKTNV-1" source="vMmNoZHCzbard37rDWfw-34" target="vMmNoZHCzbard37rDWfw-41">
          <mxGeometry relative="1" as="geometry" />
        </mxCell>
        <mxCell id="vMmNoZHCzbard37rDWfw-34" value="報名頁面" style="rounded=1;whiteSpace=wrap;html=1;fontSize=12;glass=0;strokeWidth=1;shadow=0;" vertex="1" parent="WIyWlLk6GJQsqaUBKTNV-1">
          <mxGeometry x="40" y="450" width="120" height="110" as="geometry" />
        </mxCell>
        <mxCell id="vMmNoZHCzbard37rDWfw-36" value="&lt;span style=&quot;font-size: 19px;&quot;&gt;&lt;b&gt;使用者直接選取活動&lt;/b&gt;&lt;/span&gt;" style="text;html=1;strokeColor=none;fillColor=none;align=center;verticalAlign=middle;whiteSpace=wrap;rounded=0;" vertex="1" parent="WIyWlLk6GJQsqaUBKTNV-1">
          <mxGeometry x="90" y="370" width="190" height="30" as="geometry" />
        </mxCell>
        <mxCell id="vMmNoZHCzbard37rDWfw-37" value="" style="endArrow=classic;html=1;rounded=0;exitX=0;exitY=0.5;exitDx=0;exitDy=0;" edge="1" parent="WIyWlLk6GJQsqaUBKTNV-1" source="vMmNoZHCzbard37rDWfw-4" target="vMmNoZHCzbard37rDWfw-24">
          <mxGeometry width="50" height="50" relative="1" as="geometry">
            <mxPoint x="480" y="280" as="sourcePoint" />
            <mxPoint x="530" y="230" as="targetPoint" />
          </mxGeometry>
        </mxCell>
        <mxCell id="vMmNoZHCzbard37rDWfw-38" value="&lt;span style=&quot;font-size: 19px;&quot;&gt;&lt;b&gt;PO上頁面&lt;/b&gt;&lt;/span&gt;" style="text;html=1;strokeColor=none;fillColor=none;align=center;verticalAlign=middle;whiteSpace=wrap;rounded=0;" vertex="1" parent="WIyWlLk6GJQsqaUBKTNV-1">
          <mxGeometry x="270" y="240" width="110" height="30" as="geometry" />
        </mxCell>
        <mxCell id="vMmNoZHCzbard37rDWfw-39" value="" style="endArrow=classic;html=1;rounded=0;" edge="1" parent="WIyWlLk6GJQsqaUBKTNV-1">
          <mxGeometry width="50" height="50" relative="1" as="geometry">
            <mxPoint x="-450" y="560" as="sourcePoint" />
            <mxPoint x="50" y="800" as="targetPoint" />
          </mxGeometry>
        </mxCell>
        <mxCell id="vMmNoZHCzbard37rDWfw-40" value="" style="endArrow=classic;html=1;rounded=0;" edge="1" parent="WIyWlLk6GJQsqaUBKTNV-1">
          <mxGeometry width="50" height="50" relative="1" as="geometry">
            <mxPoint x="100" y="560" as="sourcePoint" />
            <mxPoint x="100" y="800" as="targetPoint" />
          </mxGeometry>
        </mxCell>
        <mxCell id="vMmNoZHCzbard37rDWfw-41" value="額滿" style="rounded=1;whiteSpace=wrap;html=1;fontSize=12;glass=0;strokeWidth=1;shadow=0;" vertex="1" parent="WIyWlLk6GJQsqaUBKTNV-1">
          <mxGeometry x="40" y="800" width="120" height="110" as="geometry" />
        </mxCell>
        <mxCell id="vMmNoZHCzbard37rDWfw-43" value="" style="endArrow=classic;html=1;rounded=0;entryX=1;entryY=0;entryDx=0;entryDy=0;" edge="1" parent="WIyWlLk6GJQsqaUBKTNV-1" target="vMmNoZHCzbard37rDWfw-41">
          <mxGeometry width="50" height="50" relative="1" as="geometry">
            <mxPoint x="540" y="320" as="sourcePoint" />
            <mxPoint x="590" y="270" as="targetPoint" />
          </mxGeometry>
        </mxCell>
      </root>
    </mxGraphModel>
  </diagram>
</mxfile>
